<svg xmlns="http://www.w3.org/2000/svg" viewBox="0 0 50 14"><defs><style>.a{fill:#00aeef;}</style></defs><title>mask</title><path class="a" d="M43.5,0.94C42.329,1.2,39.032,3.75,39,4.531a21.249,21.249,0,0,0,3.5,1.811,10.847,10.847,0,0,0,4.065,0c0.751-.189,2.812-1.03,2.729-1.893-0.116-1.2-1.7-2.561-2.478-3.007A4.983,4.983,0,0,0,43.5.94Zm0.64,5.29a2.409,2.409,0,0,1-2.251-2.564,2.272,2.272,0,1,1,4.493,0A2.4,2.4,0,0,1,44.139,6.23Z"/><polygon class="a" points="38.996 4.531 42.106 9.154 40.018 13.776 38.996 4.531"/><polygon class="a" points="38.996 4.531 37.456 9.544 33.559 11.437 38.996 4.531"/></svg>