<?xml version="1.0" encoding="utf-8" standalone="no"?>
<svg xmlns="http://www.w3.org/2000/svg" version="1.1" width="17px" height="57px">
  <style type="text/css">
#background {
  fill: none;
}
.shield {
  fill: #00f;
  stroke: #fff;
  stroke-width: 1px;
}
.mark {
  fill: #fff;
  font-family: sans-serif;
  font-size: 9pt;
  font-weight: bold;
  text-anchor: middle;
}
#gear {
  fill:#fff;
}
  </style>
  <rect id="background" width="17" height="57" x="0" y="0" />

  <g transform="translate(0.5, 0.5)">
    <g class="comment" transform="translate(0, 0)">
      <circle class="shield" r="8" cx="8" cy="8" />
      <text class="mark" x="8" y="12.75">?</text>
    </g>
    <g class="mutator" transform="translate(0, 20)">
      <rect class="shield" width="16" height="16" rx="4" ry="4" />
      <path id="gear" transform="scale(.8, .8)"
         d="m 11.45,4.05 a 1.4926864,1.4926414 0 0 1 -1.435182,1.0875 1.4926864,1.4926414 0 0 1 -1.436269,-1.0873 6.1766332,6.176447 0 0 0 -1.790178,0.745 1.4926864,1.4926414 0 0 1 -0.247387,1.7812 1.4926864,1.4926414 0 0 1 -1.783784,0.247 6.1766332,6.176447 0 0 0 -0.742282,1.7916 1.4926864,1.4926414 0 0 1 1.087144,1.4351 a 1.4926864,1.4926414 0 0 1 -1.1,1.4 a 6.1766332,6.176447 0 0 0 0.745056,1.7901 1.4926864,1.4926414 0 0 1 1.781211,0.2474 1.4926864,1.4926414 0 0 1 0.247106,1.7837 6.1766332,6.176447 0 0 0 1.791625,0.7423 1.4926864,1.4926414 0 0 1 1.435103,-1.0871 1.4926864,1.4926414 0 0 1 1.436268,1.0873 6.1766332,6.176447 0 0 0 1.790178,-0.745 1.4926864,1.4926414 0 0 1 0.247387,-1.7812 1.4926864,1.4926414 0 0 1 1.783784,-0.2471 6.1766332,6.176447 0 0 0 0.742282,-1.7916 1.4926864,1.4926414 0 0 1 -1.087144,-1.435 1.4926864,1.4926414 0 0 1 1.085737,-1.4358 6.1766332,6.176447 0 0 0 -0.746223,-1.7889 1.4926864,1.4926414 0 0 1 -1.778436,-0.249 1.4926864,1.4926414 0 0 1 -0.249317,-1.7793 6.1766332,6.176447 0 0 0 -1.789334,-0.7471 z m -1.435182,3.0457 a 2.9544896,2.9544005 0 0 1 2.954489,2.9544 2.9544896,2.9544005 0 0 1 -2.954489,2.9544 2.9544896,2.9544005 0 0 1 -2.95449,-2.9544 2.9544896,2.9544005 0 0 1 2.95449,-2.9544 z" />
    </g>
    <g class="warning" transform="translate(0, 40)">
      <path class="shield" d="M 2,15 Q -1,15 0.5,12 L 6.5,1.7 Q 8,-1 9.5,1.7 L 15.5,12 Q 17,15 14,15 z" />
      <text class="mark" x="8" y="13">!</text>
    </g>
  </g>
</svg>
