<svg width="72" height="72" viewBox="0 0 72 72" fill="none" xmlns="http://www.w3.org/2000/svg">
<rect width="72" height="72" fill="none"/>
<path d="M44.41 15C45.8 17.71 46.35 20.84 46 24C45.8 27.16 44.7 30.29 42.83 33L41.3 32C42.91 29.57 43.85 26.8 44 24C44.34 21.2 43.89 18.43 42.7 16L44.41 15ZM29.17 15L30.7 16C29.09 18.43 28.15 21.2 28 24C27.66 26.8 28.12 29.57 29.3 32L27.61 33C26.21 30.29 25.65 27.17 26 24C26.2 20.84 27.3 17.71 29.17 15ZM36.08 22.68L38.4 19.45H40.93L37.15 24.45L39.35 29.37H37.09L35.71 26L33.28 29.33H30.76L34.66 24.21L32.53 19.45H34.8L36.08 22.68Z" fill="white"/>
</svg>
