<?xml version="1.0" encoding="utf-8" standalone="no"?>
<svg xmlns="http://www.w3.org/2000/svg" version="1.1" width="96px" height="124px">
  <style type="text/css">
#background {
  fill: none;
}
.arrows {
  fill: #000;
  stroke: none;
}
.selected .arrows {
  fill: #fff;
}
.checkmark {
  fill: #000;
  font-family: sans-serif;
  font-size: 10pt;
  text-anchor: middle;
}
.trash {
  fill: #888;
}
  </style>
  <rect id="background" width="64" height="92" x="0" y="0" />

  <g>
    <path class="arrows" d="M 13,1.5 13,14.5 1.74,8 z" />
    <path class="arrows" d="M 17.5,3 30.5,3 24,14.26 z" />
    <path class="arrows" d="M 35,1.5 35,14.5 46.26,8 z" />
  </g>
  <g class="selected" transform="translate(0, 16)">
    <path class="arrows" d="M 13,1.5 13,14.5 1.74,8 z" />
    <path class="arrows" d="M 17.5,3 30.5,3 24,14.26 z" />
    <path class="arrows" d="M 35,1.5 35,14.5 46.26,8 z" />
  </g>

  <text class="checkmark" x="55.5" y="28">&#10003;</text>

  <g class="trash">
    <path d="M 2,41 v 6 h 42 v -6 h -10.5 l -3,-3 h -15 l -3,3 z" />
    <rect width="36" height="20" x="5" y="50" />
    <rect width="36" height="42" x="5" y="50" rx="4" ry="4" />
  </g>

  <g transform="translate(0, 92)">
    <g transform="scale(0.065)">
      <path fill="#888" d="M468.467,222.168h-28.329c-9.712-89.679-80.46-161.18-169.71-172.258V24.135c0-13.338-10.791-24.134-24.134-24.134
          c-13.311,0-24.117,10.796-24.117,24.134V49.91C132.924,60.988,62.177,132.488,52.482,222.168H24.153
          C10.806,222.168,0,232.964,0,246.286c0,13.336,10.806,24.132,24.153,24.132h29.228c12.192,86.816,81.551,155.4,168.797,166.229
          v31.804c0,13.336,10.806,24.135,24.117,24.135c13.343,0,24.134-10.799,24.134-24.135v-31.804
          c87.228-10.829,156.607-79.413,168.775-166.229h29.264c13.33,0,24.122-10.796,24.122-24.132
          C492.589,232.964,481.797,222.168,468.467,222.168z M246.294,398.093c-85.345,0-154.804-69.453-154.804-154.813
          c0-85.363,69.459-154.813,154.804-154.813c85.376,0,154.823,69.45,154.823,154.813
          C401.117,328.639,331.671,398.093,246.294,398.093z"/>
      <path fill="#888" d="M246.294,176.93c-36.628,0-66.34,29.704-66.34,66.349c0,36.635,29.711,66.349,66.34,66.349
          c36.66,0,66.34-29.713,66.34-66.349C312.634,206.635,282.955,176.93,246.294,176.93z"/>
    </g>
  </g>

  <g transform="translate(32, 92)">
    <g transform="scale(0.08)">
      <path fill="#888" d="M199.995,0C89.716,0,0,89.72,0,200c0,110.279,89.716,200,199.995,200C310.277,400,400,310.279,400,200
          C400,89.72,310.277,0,199.995,0z M199.995,373.77C104.182,373.77,26.23,295.816,26.23,200c0-95.817,77.951-173.77,173.765-173.77
          c95.817,0,173.772,77.953,173.772,173.77C373.769,295.816,295.812,373.77,199.995,373.77z"/>
      <path fill="#888" d="M279.478,186.884h-66.363V120.52c0-7.243-5.872-13.115-13.115-13.115s-13.115,5.873-13.115,13.115v66.368h-66.361
          c-7.242,0-13.115,5.873-13.115,13.115c0,7.243,5.873,13.115,13.115,13.115h66.358v66.362c0,7.242,5.872,13.114,13.115,13.114
          c7.242,0,13.115-5.872,13.115-13.114v-66.365h66.367c7.241,0,13.114-5.873,13.114-13.115
          C292.593,192.757,286.72,186.884,279.478,186.884z"/>
    </g>
  </g>

  <g transform="translate(64, 92)">
    <g transform="scale(0.08)">
      <path fill="#888" d="M199.991,0C89.715,0,0.002,89.72,0.002,200c0,110.279,89.713,200,199.989,200c110.281,0,200.007-89.721,200.007-200
          C399.998,89.72,310.272,0,199.991,0z M199.991,373.77c-95.81,0-173.759-77.953-173.759-173.77
          c0-95.817,77.949-173.77,173.759-173.77c95.821,0,173.775,77.953,173.775,173.77C373.768,295.816,295.812,373.77,199.991,373.77z"
          />
      <path fill="#888" d="M279.476,186.884l-158.958,0.003c-7.242,0-13.115,5.873-13.115,13.115c0,7.243,5.873,13.116,13.115,13.116l158.958-0.005
          c7.243,0,13.115-5.872,13.115-13.114S286.719,186.884,279.476,186.884z"/>
    </g>
  </g>
</svg>
