<?xml version="1.0" encoding="iso-8859-1"?>
<!-- Generator: Adobe Illustrator 18.0.0, SVG Export Plug-In . SVG Version: 6.00 Build 0)  -->
<!DOCTYPE svg PUBLIC "-//W3C//DTD SVG 1.1//EN" "http://www.w3.org/Graphics/SVG/1.1/DTD/svg11.dtd">
<svg version="1.1" id="zoomCenter" xmlns="http://www.w3.org/2000/svg" xmlns:xlink="http://www.w3.org/1999/xlink" x="0px" y="0px"
	 width="32px" height="32px" viewBox="0 0 49.589 49.589">
  <g transform="scale(0.1)">
    <path fill="#888" d="M468.467,222.168h-28.329c-9.712-89.679-80.46-161.18-169.71-172.258V24.135c0-13.338-10.791-24.134-24.134-24.134
        c-13.311,0-24.117,10.796-24.117,24.134V49.91C132.924,60.988,62.177,132.488,52.482,222.168H24.153
        C10.806,222.168,0,232.964,0,246.286c0,13.336,10.806,24.132,24.153,24.132h29.228c12.192,86.816,81.551,155.4,168.797,166.229
        v31.804c0,13.336,10.806,24.135,24.117,24.135c13.343,0,24.134-10.799,24.134-24.135v-31.804
        c87.228-10.829,156.607-79.413,168.775-166.229h29.264c13.33,0,24.122-10.796,24.122-24.132
        C492.589,232.964,481.797,222.168,468.467,222.168z M246.294,398.093c-85.345,0-154.804-69.453-154.804-154.813
        c0-85.363,69.459-154.813,154.804-154.813c85.376,0,154.823,69.45,154.823,154.813
        C401.117,328.639,331.671,398.093,246.294,398.093z"/>
    <path fill="#888" d="M246.294,176.93c-36.628,0-66.34,29.704-66.34,66.349c0,36.635,29.711,66.349,66.34,66.349
        c36.66,0,66.34-29.713,66.34-66.349C312.634,206.635,282.955,176.93,246.294,176.93z"/>
  </g>
</svg>
