<?xml version="1.0" encoding="utf-8"?>
<!DOCTYPE svg PUBLIC "-//W3C//DTD SVG 1.1//EN" "http://www.w3.org/Graphics/SVG/1.1/DTD/svg11.dtd">
<svg version="1.1" id="zoomOut" xmlns="http://www.w3.org/2000/svg" xmlns:xlink="http://www.w3.org/1999/xlink" x="0px" y="0px"
	 width="32px" height="32px" viewBox="0 0 32 32">
  <g transform="scale(0.08)">
    <path fill="#888" d="M199.991,0C89.715,0,0.002,89.72,0.002,200c0,110.279,89.713,200,199.989,200c110.281,0,200.007-89.721,200.007-200
        C399.998,89.72,310.272,0,199.991,0z M199.991,373.77c-95.81,0-173.759-77.953-173.759-173.77
        c0-95.817,77.949-173.77,173.759-173.77c95.821,0,173.775,77.953,173.775,173.77C373.768,295.816,295.812,373.77,199.991,373.77z"
        />
    <path fill="#888" d="M279.476,186.884l-158.958,0.003c-7.242,0-13.115,5.873-13.115,13.115c0,7.243,5.873,13.116,13.115,13.116l158.958-0.005
        c7.243,0,13.115-5.872,13.115-13.114S286.719,186.884,279.476,186.884z"/>
  </g>
</svg>
