<svg xmlns="http://www.w3.org/2000/svg" viewBox="0 0 50 11"><defs><style>.a{fill:#00aeef;}.b{fill:#ed1c24;}.c{fill:#fff200;}</style></defs><title>propeller</title><path class="a" d="M39.974,3.854c-2.022.99-2.948,3.89-1.509,6.828L40.716,9.56A10.329,10.329,0,0,1,39.974,3.854Z"/><path class="b" d="M39.974,3.854c1.975-.967,4.846-0.012,6.319,3L44.277,7.873A8.089,8.089,0,0,0,39.974,3.854Z"/><path class="c" d="M39.974,3.854a8.088,8.088,0,0,1,4.3,4.02l-3.55,1.71A10.011,10.011,0,0,1,39.974,3.854Z"/><path class="c" d="M35.795,4.493a3.81,3.81,0,0,1,1.016-.871A3.548,3.548,0,0,1,38.032,3.1a4.2,4.2,0,0,0,1.483-.434,9.15,9.15,0,0,0,1.245-.92A4.585,4.585,0,0,1,41.926,1.1a3.941,3.941,0,0,1,1.3-.3L43.364,1.1a3.941,3.941,0,0,1-1.031.84,4.585,4.585,0,0,1-1.219.53,9.149,9.149,0,0,0-1.49.419,4.194,4.194,0,0,0-1.252.905,3.549,3.549,0,0,1-1.164.642A3.81,3.81,0,0,1,35.9,4.7Z"/></svg>