<svg width="72" height="72" viewBox="0 0 72 72" fill="none" xmlns="http://www.w3.org/2000/svg">
<rect width="72" height="72" fill="none"/>
<path d="M33 14H28C26.8954 14 26 14.8954 26 16V21C26 22.1046 26.8954 23 28 23H33C34.1046 23 35 22.1046 35 21V16C35 14.8954 34.1046 14 33 14ZM33 18H28V17H33V18ZM33 20H28V19H33V20ZM44 25C45.1046 25 46 25.8954 46 27V32C46 33.1046 45.1046 34 44 34H39C37.8954 34 37 33.1046 37 32V27C37 25.8954 37.8954 25 39 25H44ZM42.295 27L40 29.4973L42.295 32L43 31.2257L41.415 29.4973L43 27.7688L42.295 27ZM44 14C45.1046 14 46 14.8954 46 16V21C46 22.1046 45.1046 23 44 23H39C37.8954 23 37 22.1046 37 21V16C37 14.8954 37.8954 14 39 14H44ZM40.705 16L40 16.7688L41.585 18.4973L40 20.2257L40.705 21L43 18.4973L40.705 16ZM33 25H28C26.8954 25 26 25.8954 26 27V32C26 33.1046 26.8954 34 28 34H33C34.1046 34 35 33.1046 35 32V27C35 25.8954 34.1046 25 33 25ZM33 30H31V32H30V30H28V29H30V27H31V29H33V30Z" fill="white"/>
</svg>
