<svg width="72" height="72" viewBox="0 0 72 72" fill="none" xmlns="http://www.w3.org/2000/svg">
<rect width="72" height="72" fill="none"/>
<path d="M35 13L34.9987 16.0197C35.3226 16.0067 35.6572 16 36.0027 16C36.3461 16.0049 36.6786 16.0167 37.0004 16.0349L37 13H41L41.0003 16.7319C47.7008 18.9404 46.2237 25.5205 44.4756 28C43.1159 29.9286 39.9847 32.4515 36.0027 35C31.7725 32.3333 28.965 30 27.5549 28L27.4281 27.8129C25.6977 25.1597 24.1579 18.6699 30.999 16.6266L31 13H35ZM36.3334 18.0076L35.9813 17.999L36.0027 18C31.1855 18 28.8554 19.294 28.175 21.3471C27.6702 22.8705 28.0802 25.0031 28.9499 26.4752L29.0837 26.6909L29.1895 26.8476C30.2477 28.3485 32.3487 30.1776 35.4723 32.2711L35.994 32.616L36.0656 32.5698C39.2679 30.4317 41.6397 28.4468 42.7219 27.0108L42.841 26.8476C43.7804 25.515 44.2613 23.2253 43.724 21.5699C43.0482 19.4876 40.8267 18.1385 36.3334 18.0076Z" fill="white"/>
</svg>
